<svg xmlns="http://www.w3.org/2000/svg" version="1.1" xmlns:xlink="http://www.w3.org/1999/xlink" xmlns:svgjs="http://svgjs.dev/svgjs" width="1000" height="1000" viewBox="0 0 1000 1000"><rect width="1000" height="1000" fill="#d9bca9"></rect><g transform="matrix(0.7,0,0,0.7,149.57575757575756,282.1654016194333)"><svg viewBox="0 0 396 247" data-background-color="#d9bca9" preserveAspectRatio="xMidYMid meet" height="623" width="1000" xmlns="http://www.w3.org/2000/svg" xmlns:xlink="http://www.w3.org/1999/xlink"><g id="tight-bounds" transform="matrix(1,0,0,1,0.2400000000000091,-0.09999999999999432)"><svg viewBox="0 0 395.52 247.2" height="247.2" width="395.52"><g><svg></svg></g><g><svg viewBox="0 0 395.52 247.2" height="247.2" width="395.52"><g mask="url(&quot;#c9a8479f-336b-4aac-9c78-d9fa6a5ed539&quot;)"><g><path xmlns="http://www.w3.org/2000/svg" d="M245.375 167.56h30.525c-1.309 25.765-8.551 45.483-21.727 59.154-13.13 13.672-31.721 20.508-55.77 20.508v0c-24.095 0-43.249-9.182-57.463-27.547-14.213-18.319-21.32-43.181-21.32-74.586v0-43.587c0-31.314 7.287-56.064 21.862-74.248 14.619-18.184 34.541-27.276 59.764-27.276v0c23.238 0 41.219 6.971 53.943 20.914 12.724 13.943 19.628 33.864 20.711 59.763v0h-30.525c-1.354-19.628-5.482-33.616-12.386-41.963-6.949-8.393-17.53-12.589-31.743-12.589v0c-16.424 0-29.036 6.43-37.835 19.29-8.844 12.815-13.266 31.608-13.266 56.379v0 44.129c0 24.366 4.106 43.046 12.319 56.042 8.212 12.995 20.192 19.493 35.939 19.492 15.747 0 27.096-3.903 34.044-11.709 6.949-7.851 11.258-21.907 12.928-42.166z" fill="#000000" fill-rule="nonzero" stroke="none" stroke-width="1" stroke-linecap="butt" stroke-linejoin="miter" stroke-miterlimit="10" stroke-dasharray="" stroke-dashoffset="0" font-family="none" font-weight="none" font-size="none" text-anchor="none" style="mix-blend-mode: normal" data-fill-palette-color="tertiary"></path></g></g><g transform="matrix(1,0,0,1,91.70585136406397,37.08)"><svg viewBox="0 0 212.10829727187203 173.04" height="173.04" width="212.10829727187203"><g><svg viewBox="0 0 212.10829727187203 173.04" height="173.04" width="212.10829727187203"><g><svg viewBox="0 0 212.10829727187203 173.04" height="173.04" width="212.10829727187203"><g><svg viewBox="0 0 212.10829727187203 173.04" height="173.04" width="212.10829727187203"><g id="textblocktransform"><svg viewBox="0 0 212.10829727187203 173.04" height="173.04" width="212.10829727187203" id="textblock"><g><svg viewBox="0 0 212.10829727187203 173.04" height="173.04" width="212.10829727187203"><g transform="matrix(1,0,0,1,0,0)"><svg width="212.10829727187203" viewBox="0.029999971389770508 -39.040000915527344 51.88999938964844 42.53000259399414" height="173.04" data-palette-color="#000000"><path d="M21.61-11.28L26.12-11.28Q25.83-5.57 22.91-2.54 20 0.49 14.67 0.49L14.67 0.49Q9.33 0.49 6.18-3.58 3.03-7.64 3.03-14.6L3.03-14.6 3.03-21.04Q3.03-27.98 6.26-32.01 9.5-36.04 15.09-36.04L15.09-36.04Q20.24-36.04 23.06-32.95 25.88-29.86 26.12-24.12L26.12-24.12 21.61-24.12Q21.31-28.47 19.78-30.32 18.24-32.18 15.09-32.18L15.09-32.18Q11.45-32.18 9.5-29.33 7.54-26.49 7.54-21L7.54-21 7.54-14.48Q7.54-9.08 9.36-6.2 11.18-3.32 14.67-3.32 18.16-3.32 19.7-5.05 21.24-6.79 21.61-11.28L21.61-11.28ZM44.43-10.4L44.43-35.55 48.92-35.55 48.92-10.38Q48.92-5.27 46.32-2.39 43.72 0.49 39.33 0.49L39.33 0.49Q34.81 0.49 32.3-2.25 29.78-4.98 29.78-9.81L29.78-9.81 34.25-9.81Q34.25-6.76 35.59-5.05 36.94-3.34 39.33-3.34L39.33-3.34Q41.65-3.34 43.04-5.2 44.43-7.06 44.43-10.4L44.43-10.4Z" opacity="1" transform="matrix(1,0,0,1,0,0)" fill="#000000" class="undefined-text-0" data-fill-palette-color="primary" id="text-0"></path></svg></g></svg></g></svg></g></svg></g><g></g></svg></g></svg></g></svg></g></svg></g><defs><mask id="c9a8479f-336b-4aac-9c78-d9fa6a5ed539"><rect width="395.52" height="247.2" fill="white"></rect><g transform="matrix(1,0,0,1,91.70585136406397,37.08)" id="clone"><svg viewBox="0 0 212.10829727187203 173.04" height="173.04" width="212.10829727187203"><g><svg viewBox="0 0 212.10829727187203 173.04" height="173.04" width="212.10829727187203"><g><svg viewBox="0 0 212.10829727187203 173.04" height="173.04" width="212.10829727187203"><g><svg viewBox="0 0 212.10829727187203 173.04" height="173.04" width="212.10829727187203"><g id="SvgjsG1128"><svg viewBox="0 0 212.10829727187203 173.04" height="173.04" width="212.10829727187203" id="SvgjsSvg1127"><g><svg viewBox="0 0 212.10829727187203 173.04" height="173.04" width="212.10829727187203"><g transform="matrix(1,0,0,1,0,0)"><svg width="212.10829727187203" viewBox="0.029999971389770508 -39.040000915527344 51.88999938964844 42.53000259399414" height="173.04" data-palette-color="#000000"><path d="M21.61-11.28L26.12-11.28Q25.83-5.57 22.91-2.54 20 0.49 14.67 0.49L14.67 0.49Q9.33 0.49 6.18-3.58 3.03-7.64 3.03-14.6L3.03-14.6 3.03-21.04Q3.03-27.98 6.26-32.01 9.5-36.04 15.09-36.04L15.09-36.04Q20.24-36.04 23.06-32.95 25.88-29.86 26.12-24.12L26.12-24.12 21.61-24.12Q21.31-28.47 19.78-30.32 18.24-32.18 15.09-32.18L15.09-32.18Q11.45-32.18 9.5-29.33 7.54-26.49 7.54-21L7.54-21 7.54-14.48Q7.54-9.08 9.36-6.2 11.18-3.32 14.67-3.32 18.16-3.32 19.7-5.05 21.24-6.79 21.61-11.28L21.61-11.28ZM44.43-10.4L44.43-35.55 48.92-35.55 48.92-10.38Q48.92-5.27 46.32-2.39 43.72 0.49 39.33 0.49L39.33 0.49Q34.81 0.49 32.3-2.25 29.78-4.98 29.78-9.81L29.78-9.81 34.25-9.81Q34.25-6.76 35.59-5.05 36.94-3.34 39.33-3.34L39.33-3.34Q41.65-3.34 43.04-5.2 44.43-7.06 44.43-10.4L44.43-10.4Z" opacity="1" transform="matrix(1,0,0,1,0,0)" fill="#000000" class="undefined-text-0" data-fill-palette-color="primary" id="SvgjsPath1126" stroke-width="5" stroke="black" stroke-linejoin="round"></path></svg></g></svg></g></svg></g></svg></g><g></g></svg></g></svg></g></svg></g></mask></defs></svg><rect width="395.52" height="247.2" fill="none" stroke="none" visibility="hidden"></rect></g></svg></g></svg>